<mxfile host="app.diagrams.net" modified="2023-11-12T15:22:17.133Z" agent="Mozilla/5.0 (Windows NT 10.0; Win64; x64) AppleWebKit/537.36 (KHTML, like Gecko) Chrome/116.0.0.0 Safari/537.36 OPR/102.0.0.0" etag="fWV4Ee9PqHyhFqnGuKhO" version="22.1.0" type="github">
  <diagram name="Page-1" id="58cdce13-f638-feb5-8d6f-7d28b1aa9fa0">
    <mxGraphModel dx="2242" dy="1273" grid="1" gridSize="10" guides="1" tooltips="1" connect="1" arrows="1" fold="1" page="1" pageScale="1" pageWidth="1169" pageHeight="827" background="#ffffff" math="0" shadow="0">
      <root>
        <mxCell id="0" />
        <mxCell id="1" parent="0" />
        <mxCell id="sHUIRtbM3QyX_YDxcH6q-7" value="" style="ellipse;whiteSpace=wrap;html=1;aspect=fixed;" parent="1" vertex="1">
          <mxGeometry x="385" y="364" width="100" height="100" as="geometry" />
        </mxCell>
        <mxCell id="Kv97bCAMAhUB6kwCJj7T-15" value="" style="ellipse;whiteSpace=wrap;html=1;aspect=fixed;" vertex="1" parent="1">
          <mxGeometry x="395" y="374" width="80" height="80" as="geometry" />
        </mxCell>
        <mxCell id="IZlNTnuDeRnr3kroAgnc-2" value="" style="ellipse;whiteSpace=wrap;html=1;aspect=fixed;" vertex="1" parent="1">
          <mxGeometry x="585" y="364" width="100" height="100" as="geometry" />
        </mxCell>
        <mxCell id="Kv97bCAMAhUB6kwCJj7T-13" value="" style="ellipse;whiteSpace=wrap;html=1;aspect=fixed;" vertex="1" parent="1">
          <mxGeometry x="595" y="374" width="80" height="80" as="geometry" />
        </mxCell>
        <mxCell id="IZlNTnuDeRnr3kroAgnc-6" value="" style="ellipse;whiteSpace=wrap;html=1;aspect=fixed;" vertex="1" parent="1">
          <mxGeometry x="785" y="364" width="100" height="100" as="geometry" />
        </mxCell>
        <mxCell id="Kv97bCAMAhUB6kwCJj7T-12" value="" style="ellipse;whiteSpace=wrap;html=1;aspect=fixed;" vertex="1" parent="1">
          <mxGeometry x="795" y="374" width="80" height="80" as="geometry" />
        </mxCell>
        <mxCell id="Kv97bCAMAhUB6kwCJj7T-9" value="" style="ellipse;whiteSpace=wrap;html=1;aspect=fixed;" vertex="1" parent="1">
          <mxGeometry x="985" y="364" width="100" height="100" as="geometry" />
        </mxCell>
        <mxCell id="Kv97bCAMAhUB6kwCJj7T-11" value="" style="ellipse;whiteSpace=wrap;html=1;aspect=fixed;" vertex="1" parent="1">
          <mxGeometry x="995" y="374" width="80" height="80" as="geometry" />
        </mxCell>
        <mxCell id="2a3bc250acf0617d-9" style="edgeStyle=orthogonalEdgeStyle;html=1;labelBackgroundColor=none;endArrow=open;endSize=8;strokeColor=#0f0f0f;fontFamily=Verdana;fontSize=12;align=left;entryX=0;entryY=0.5;entryDx=0;entryDy=0;fillColor=#a0522d;" parent="1" target="sHUIRtbM3QyX_YDxcH6q-1" edge="1">
          <mxGeometry relative="1" as="geometry">
            <mxPoint x="85" y="414" as="sourcePoint" />
            <mxPoint x="195" y="414" as="targetPoint" />
          </mxGeometry>
        </mxCell>
        <mxCell id="sHUIRtbM3QyX_YDxcH6q-1" value="" style="ellipse;whiteSpace=wrap;html=1;aspect=fixed;" parent="1" vertex="1">
          <mxGeometry x="185" y="364" width="100" height="100" as="geometry" />
        </mxCell>
        <mxCell id="sHUIRtbM3QyX_YDxcH6q-3" value="Start" style="text;strokeColor=none;fillColor=none;align=left;verticalAlign=middle;spacingLeft=4;spacingRight=4;overflow=hidden;points=[[0,0.5],[1,0.5]];portConstraint=eastwest;rotatable=0;whiteSpace=wrap;html=1;fontSize=16;" parent="1" vertex="1">
          <mxGeometry x="85" y="382.75" width="60" height="30" as="geometry" />
        </mxCell>
        <mxCell id="sHUIRtbM3QyX_YDxcH6q-4" value="S" style="text;strokeColor=none;fillColor=none;align=center;verticalAlign=middle;spacingLeft=4;spacingRight=4;overflow=hidden;points=[[0,0.5],[1,0.5]];portConstraint=eastwest;rotatable=0;whiteSpace=wrap;html=1;fontSize=16;" parent="1" vertex="1">
          <mxGeometry x="185" y="382.75" width="100" height="62.5" as="geometry" />
        </mxCell>
        <mxCell id="sHUIRtbM3QyX_YDxcH6q-6" style="edgeStyle=orthogonalEdgeStyle;html=1;labelBackgroundColor=none;endArrow=open;endSize=8;strokeColor=#0f0f0f;fontFamily=Verdana;fontSize=12;align=left;entryX=0;entryY=0.5;entryDx=0;entryDy=0;fillColor=#a0522d;" parent="1" edge="1">
          <mxGeometry relative="1" as="geometry">
            <mxPoint x="285" y="412.75" as="sourcePoint" />
            <mxPoint x="385" y="412.75" as="targetPoint" />
          </mxGeometry>
        </mxCell>
        <mxCell id="sHUIRtbM3QyX_YDxcH6q-8" value="T" style="text;strokeColor=none;fillColor=none;align=center;verticalAlign=middle;spacingLeft=4;spacingRight=4;overflow=hidden;points=[[0,0.5],[1,0.5]];portConstraint=eastwest;rotatable=0;whiteSpace=wrap;html=1;fontSize=16;" parent="1" vertex="1">
          <mxGeometry x="305" y="382.75" width="60" height="30" as="geometry" />
        </mxCell>
        <mxCell id="sHUIRtbM3QyX_YDxcH6q-9" value="T" style="text;strokeColor=none;fillColor=none;align=center;verticalAlign=middle;spacingLeft=4;spacingRight=4;overflow=hidden;points=[[0,0.5],[1,0.5]];portConstraint=eastwest;rotatable=0;whiteSpace=wrap;html=1;fontSize=16;" parent="1" vertex="1">
          <mxGeometry x="400" y="391.5" width="70" height="45" as="geometry" />
        </mxCell>
        <mxCell id="sHUIRtbM3QyX_YDxcH6q-11" value="E" style="text;strokeColor=none;fillColor=none;align=center;verticalAlign=middle;spacingLeft=4;spacingRight=4;overflow=hidden;points=[[0,0.5],[1,0.5]];portConstraint=eastwest;rotatable=0;whiteSpace=wrap;html=1;fontSize=16;" parent="1" vertex="1">
          <mxGeometry x="685" y="382.75" width="90" height="30" as="geometry" />
        </mxCell>
        <mxCell id="IZlNTnuDeRnr3kroAgnc-1" style="edgeStyle=orthogonalEdgeStyle;html=1;labelBackgroundColor=none;endArrow=open;endSize=8;strokeColor=#0f0f0f;fontFamily=Verdana;fontSize=12;align=left;entryX=0;entryY=0.5;entryDx=0;entryDy=0;fillColor=#a0522d;" edge="1" parent="1">
          <mxGeometry relative="1" as="geometry">
            <mxPoint x="485" y="412.75" as="sourcePoint" />
            <mxPoint x="585" y="412.75" as="targetPoint" />
          </mxGeometry>
        </mxCell>
        <mxCell id="IZlNTnuDeRnr3kroAgnc-3" value="H" style="text;strokeColor=none;fillColor=none;align=center;verticalAlign=middle;spacingLeft=4;spacingRight=4;overflow=hidden;points=[[0,0.5],[1,0.5]];portConstraint=eastwest;rotatable=0;whiteSpace=wrap;html=1;fontSize=16;" vertex="1" parent="1">
          <mxGeometry x="505" y="382.75" width="60" height="30" as="geometry" />
        </mxCell>
        <mxCell id="IZlNTnuDeRnr3kroAgnc-4" value="TH" style="text;strokeColor=none;fillColor=none;align=center;verticalAlign=middle;spacingLeft=4;spacingRight=4;overflow=hidden;points=[[0,0.5],[1,0.5]];portConstraint=eastwest;rotatable=0;whiteSpace=wrap;html=1;fontSize=16;" vertex="1" parent="1">
          <mxGeometry x="600" y="391.5" width="70" height="42.5" as="geometry" />
        </mxCell>
        <mxCell id="IZlNTnuDeRnr3kroAgnc-5" style="edgeStyle=orthogonalEdgeStyle;html=1;labelBackgroundColor=none;endArrow=open;endSize=8;strokeColor=#0f0f0f;fontFamily=Verdana;fontSize=12;align=left;entryX=0;entryY=0.5;entryDx=0;entryDy=0;fillColor=#a0522d;" edge="1" parent="1">
          <mxGeometry relative="1" as="geometry">
            <mxPoint x="685" y="413.5" as="sourcePoint" />
            <mxPoint x="785" y="413.5" as="targetPoint" />
          </mxGeometry>
        </mxCell>
        <mxCell id="IZlNTnuDeRnr3kroAgnc-8" value="THE" style="text;strokeColor=none;fillColor=none;align=center;verticalAlign=middle;spacingLeft=4;spacingRight=4;overflow=hidden;points=[[0,0.5],[1,0.5]];portConstraint=eastwest;rotatable=0;whiteSpace=wrap;html=1;fontSize=16;" vertex="1" parent="1">
          <mxGeometry x="800" y="392.75" width="70" height="42.5" as="geometry" />
        </mxCell>
        <mxCell id="Kv97bCAMAhUB6kwCJj7T-7" value="N" style="text;strokeColor=none;fillColor=none;align=center;verticalAlign=middle;spacingLeft=4;spacingRight=4;overflow=hidden;points=[[0,0.5],[1,0.5]];portConstraint=eastwest;rotatable=0;whiteSpace=wrap;html=1;fontSize=16;" vertex="1" parent="1">
          <mxGeometry x="885" y="382.75" width="90" height="30" as="geometry" />
        </mxCell>
        <mxCell id="Kv97bCAMAhUB6kwCJj7T-8" style="edgeStyle=orthogonalEdgeStyle;html=1;labelBackgroundColor=none;endArrow=open;endSize=8;strokeColor=#0f0f0f;fontFamily=Verdana;fontSize=12;align=left;entryX=0;entryY=0.5;entryDx=0;entryDy=0;fillColor=#a0522d;" edge="1" parent="1">
          <mxGeometry relative="1" as="geometry">
            <mxPoint x="885" y="413.5" as="sourcePoint" />
            <mxPoint x="985" y="413.5" as="targetPoint" />
          </mxGeometry>
        </mxCell>
        <mxCell id="Kv97bCAMAhUB6kwCJj7T-10" value="THEN" style="text;strokeColor=none;fillColor=none;align=center;verticalAlign=middle;spacingLeft=4;spacingRight=4;overflow=hidden;points=[[0,0.5],[1,0.5]];portConstraint=eastwest;rotatable=0;whiteSpace=wrap;html=1;fontSize=16;" vertex="1" parent="1">
          <mxGeometry x="1000" y="392.75" width="70" height="42.5" as="geometry" />
        </mxCell>
      </root>
    </mxGraphModel>
  </diagram>
</mxfile>
